<svg id="Layer_1" data-name="Layer 1" xmlns="http://www.w3.org/2000/svg" width="585.44" height="391.72" viewBox="0 0 585.44 391.72"><defs><style>.cls-1{fill:#bee6f6;}.cls-2{fill:#f1a644;}.cls-3,.cls-4,.cls-5{fill:none;stroke-miterlimit:10;}.cls-3{stroke:#4ca5af;stroke-width:5px;}.cls-4{stroke:#000;}.cls-4,.cls-5{stroke-width:10px;}.cls-5{stroke:#231f20;stroke-linecap:round;}.cls-6{font-size:12px;fill:#231f20;font-family:PoplarStd;}.cls-7{letter-spacing:0.02em;}.cls-8{letter-spacing:-0.01em;}.cls-9{letter-spacing:-0.01em;}.cls-10{letter-spacing:0em;}.cls-11{letter-spacing:-0.01em;}.cls-12{letter-spacing:0em;}.cls-13{letter-spacing:-0.02em;}.cls-14{letter-spacing:0em;}.cls-15{letter-spacing:-0.01em;}.cls-16{letter-spacing:-0.01em;}.cls-17{letter-spacing:-0.01em;}.cls-18{letter-spacing:-0.01em;}.cls-19{letter-spacing:0em;}.cls-20{letter-spacing:-0.01em;}.cls-21{letter-spacing:0em;}.cls-22{letter-spacing:0em;}.cls-23{letter-spacing:-0.01em;}.cls-24{letter-spacing:-0.01em;}.cls-25{letter-spacing:-0.02em;}</style></defs><title>timeline</title><rect class="cls-1" x="118.77" y="11.12" width="67.34" height="60.22"/><rect class="cls-2" x="124.79" y="7.77" width="67.34" height="60.22"/><rect class="cls-1" y="4.96" width="99.65" height="89.12"/><rect class="cls-2" x="8.91" width="99.65" height="89.12"/><line class="cls-3" x1="104.79" y1="208.68" x2="104.79" y2="295.76"/><line class="cls-3" x1="204.79" y1="208.68" x2="204.79" y2="321.42"/><line class="cls-3" x1="437.02" y1="208.68" x2="437.02" y2="321.42"/><line class="cls-3" x1="333.74" y1="208.68" x2="333.74" y2="291.16"/><line class="cls-3" x1="59.39" y1="196" x2="59.39" y2="97.08"/><line class="cls-3" x1="155.45" y1="196" x2="155.45" y2="76.03"/><line class="cls-3" x1="260.05" y1="196" x2="260.05" y2="101.03"/><line class="cls-3" x1="476.5" y1="197.97" x2="476.5" y2="99.05"/><line class="cls-3" x1="375.18" y1="196" x2="375.18" y2="76.03"/><polyline class="cls-4" points="31.76 196 569.92 196 519.26 159.58"/><path class="cls-5" d="M578.92,202.5" transform="translate(-9 -6.5)"/><polyline class="cls-4" points="31.76 208.68 569.92 208.68 519.26 245.1"/><text class="cls-6" transform="translate(22.68 24.34)">Band sta<tspan class="cls-7" x="42.77" y="0">r</tspan><tspan class="cls-8" x="46.98" y="0">t</tspan><tspan x="50.88" y="0">ed </tspan><tspan x="0" y="14.4">when </tspan><tspan class="cls-9" x="30.71" y="14.4">w</tspan><tspan x="39.42" y="14.4">e </tspan><tspan class="cls-10" x="47.98" y="14.4">a</tspan><tspan class="cls-11" x="53.71" y="14.4">t</tspan><tspan x="57.61" y="14.4">e </tspan><tspan x="0" y="28.8">bisque of </tspan><tspan x="0" y="43.2">p</tspan><tspan class="cls-9" x="6.83" y="43.2">r</tspan><tspan x="10.63" y="43.2">ogho</tspan><tspan class="cls-12" x="37.17" y="43.2">r</tspan><tspan x="41.15" y="43.2">n</tspan></text><rect class="cls-1" x="223.37" y="37.13" width="67.34" height="60.22"/><rect class="cls-2" x="229.39" y="33.78" width="67.34" height="60.22"/><rect class="cls-1" x="338.5" y="12.37" width="67.34" height="60.22"/><rect class="cls-2" x="344.52" y="9.02" width="67.34" height="60.22"/><rect class="cls-1" x="437.02" y="35.45" width="67.34" height="60.22"/><rect class="cls-2" x="443.05" y="32.1" width="67.34" height="60.22"/><rect class="cls-1" x="68.13" y="299.11" width="67.34" height="60.22"/><rect class="cls-2" x="74.11" y="303.66" width="67.34" height="60.22"/><rect class="cls-1" x="168.13" y="326.95" width="67.34" height="60.22"/><rect class="cls-2" x="174.11" y="331.5" width="67.34" height="60.22"/><rect class="cls-1" x="297.07" y="296.11" width="67.34" height="60.22"/><rect class="cls-2" x="303.06" y="300.66" width="67.34" height="60.22"/><rect class="cls-1" x="400.36" y="326.22" width="67.34" height="60.22"/><rect class="cls-2" x="406.35" y="330.77" width="67.34" height="60.22"/><text class="cls-6" transform="translate(83.08 331.91)"><tspan class="cls-13">W</tspan><tspan class="cls-9" x="9.96" y="0">r</tspan><tspan x="13.76" y="0">o</tspan><tspan class="cls-11" x="20.35" y="0">t</tspan><tspan x="24.25" y="0">e </tspan><tspan x="0" y="14.4">ly</tspan><tspan class="cls-14" x="8.48" y="14.4">r</tspan><tspan x="12.46" y="14.4">ic</tspan></text><text class="cls-6" transform="translate(133.08 29.28)"><tspan class="cls-13">W</tspan><tspan class="cls-9" x="9.96" y="0">r</tspan><tspan x="13.76" y="0">o</tspan><tspan class="cls-11" x="20.35" y="0">t</tspan><tspan x="24.25" y="0">e </tspan><tspan x="0" y="14.4">melody</tspan></text><text class="cls-6" transform="translate(179.13 352.31)"><tspan class="cls-14">B</tspan><tspan x="6.55" y="0">oug</tspan><tspan class="cls-10" x="26.46" y="0">h</tspan><tspan x="33.07" y="0">t </tspan><tspan x="0" y="14.4">instrume</tspan><tspan class="cls-10" x="44.75" y="14.4">n</tspan><tspan x="51.36" y="14.4">t</tspan></text><text class="cls-6" transform="translate(235.05 54.28)"><tspan class="cls-15">P</tspan><tspan x="6.32" y="0">l</tspan><tspan class="cls-16" x="9.16" y="0">a</tspan><tspan class="cls-9" x="14.84" y="0">y</tspan><tspan x="20.38" y="0">ed </tspan><tspan x="0" y="14.4">instrume</tspan><tspan class="cls-10" x="44.75" y="14.4">n</tspan><tspan x="51.36" y="14.4">t</tspan></text><text class="cls-6" transform="translate(310.74 324.68)"><tspan class="cls-17">L</tspan><tspan x="5.5" y="0">ooked </tspan><tspan class="cls-18" x="0" y="14.4">f</tspan><tspan class="cls-19" x="3.35" y="14.4">or </tspan><tspan class="cls-20" x="16.4" y="14.4">g</tspan><tspan x="23.04" y="14.4">ig</tspan></text><text class="cls-6" transform="translate(350.18 33.23)"><tspan class="cls-21">G</tspan><tspan x="7.81" y="0">ot </tspan><tspan class="cls-20" x="20.92" y="0">g</tspan><tspan x="27.55" y="0">ig</tspan></text><text class="cls-6" transform="translate(412.02 358.23)"><tspan class="cls-22">P</tspan><tspan x="6.32" y="0">l</tspan><tspan class="cls-23" x="9.16" y="0">a</tspan><tspan class="cls-24" x="14.84" y="0">y</tspan><tspan x="20.38" y="0">ed </tspan><tspan class="cls-8" x="35.7" y="0">g</tspan><tspan x="42.34" y="0">ig</tspan></text><text class="cls-6" transform="translate(445.74 51.65)"><tspan class="cls-25">W</tspan><tspan class="cls-24" x="9.96" y="0">r</tspan><tspan x="13.76" y="0">o</tspan><tspan class="cls-8" x="20.35" y="0">t</tspan><tspan x="24.25" y="0">e </tspan><tspan x="0" y="14.4">another </tspan><tspan x="0" y="28.8">ly</tspan><tspan class="cls-14" x="8.48" y="28.8">r</tspan><tspan x="12.46" y="28.8">ic</tspan></text></svg>
