<svg id="Layer_1" data-name="Layer 1" xmlns="http://www.w3.org/2000/svg" viewBox="0 0 604.21 390.43"><defs><style>.cls-1{fill:#bee6f6;}.cls-2{fill:#f1a644;}.cls-3,.cls-4,.cls-5{fill:none;stroke-miterlimit:10;}.cls-3,.cls-4{stroke:#4ca5af;}.cls-3{stroke-width:5px;}.cls-4{stroke-width:8px;}.cls-5{stroke:#fff;stroke-linecap:round;stroke-width:10px;}.cls-6{font-size:18px;fill:#231f20;font-family:PoplarStd, Poplar Std;}.cls-7{letter-spacing:-0.02em;}.cls-8{letter-spacing:-0.02em;}.cls-9{font-size:36px;fill:#fff;font-family:MyriadPro-Regular, Myriad Pro;}</style></defs><title>timeline</title><rect class="cls-1" x="141.39" y="28.82" width="84.22" height="75.32"/><rect class="cls-2" x="148.92" y="24.63" width="84.22" height="75.32"/><rect class="cls-1" x="21.87" y="9.54" width="99.65" height="89.12"/><rect class="cls-2" x="30.78" y="4.58" width="99.65" height="89.12"/><line class="cls-3" x1="126.66" y1="213.26" x2="126.66" y2="300.34"/><line class="cls-3" x1="238.99" y1="213.26" x2="238.99" y2="277.02"/><line class="cls-3" x1="478.19" y1="213.26" x2="478.19" y2="277.02"/><line class="cls-3" x1="349.62" y1="213.26" x2="349.62" y2="295.74"/><line class="cls-3" x1="81.26" y1="200.58" x2="81.26" y2="101.66"/><line class="cls-3" x1="188.43" y1="200.58" x2="188.43" y2="115.18"/><line class="cls-3" x1="291.6" y1="200.58" x2="291.6" y2="88.73"/><line class="cls-3" x1="506.5" y1="202.55" x2="506.5" y2="103.63"/><line class="cls-3" x1="404.79" y1="200.58" x2="404.79" y2="121.76"/><polyline class="cls-4" points="53.63 200.58 591.79 200.58 541.13 164.16"/><path class="cls-5" d="M598.66,202.5" transform="translate(-6.87 -1.92)"/><polyline class="cls-4" points="53.63 213.26 591.79 213.26 541.13 249.68"/><text class="cls-6" transform="translate(35.67 39.08)">The band was <tspan x="0" y="21.6">founded</tspan></text><rect class="cls-1" x="242.93" y="4.38" width="86.54" height="78.66"/><rect class="cls-2" x="250.67" width="86.54" height="78.66"/><rect class="cls-1" x="360.35" y="44.14" width="81.58" height="73.1"/><rect class="cls-2" x="367.65" y="40.08" width="81.58" height="73.1"/><rect class="cls-1" x="459.89" y="22.76" width="86.65" height="77.5"/><rect class="cls-2" x="467.64" y="18.45" width="86.65" height="77.5"/><rect class="cls-1" x="78.82" y="305.91" width="87.88" height="78.59"/><rect class="cls-2" x="86.63" y="311.84" width="87.88" height="78.59"/><rect class="cls-1" x="194.34" y="281.46" width="81.67" height="73.04"/><rect class="cls-2" x="201.59" y="286.97" width="81.67" height="73.04"/><rect class="cls-1" x="298.39" y="300.69" width="90.52" height="80.95"/><rect class="cls-2" x="306.44" y="306.8" width="90.52" height="80.95"/><rect class="cls-1" x="424.04" y="283.28" width="99.81" height="82.29"/><rect class="cls-2" x="432.91" y="289.49" width="99.81" height="82.29"/><text class="cls-6" transform="translate(91.47 332.15)">Recorded <tspan x="0" y="21.6">first studio </tspan><tspan x="0" y="43.2">album</tspan></text><text class="cls-6" transform="translate(152.88 44.92)"><tspan class="cls-7">W</tspan><tspan x="10.87" y="0">ent on tour </tspan><tspan x="0" y="21.6">for What did I </tspan><tspan x="0" y="43.2">do Prong</tspan></text><text class="cls-6" transform="translate(207.21 308.18)">Sold out <tspan x="0" y="21.6">Roc</tspan><tspan class="cls-8" x="22.37" y="21.6">k</tspan><tspan x="28.57" y="21.6">efeller </tspan><tspan x="0" y="43.2">Center</tspan></text><text class="cls-6" transform="translate(255.3 19.1)"><tspan class="cls-7">W</tspan><tspan x="10.87" y="0">ent on a </tspan><tspan x="0" y="21.6">second </tspan><tspan x="0" y="43.2">concert tour</tspan></text><text class="cls-6" transform="translate(314.58 329.28)">Started <tspan x="0" y="21.6" xml:space="preserve">selling       </tspan><tspan x="0" y="43.2">merchandise</tspan></text><text class="cls-6" transform="translate(371.25 59.53)">Recorded <tspan x="0" y="21.6">second </tspan><tspan x="0" y="43.2">studio album</tspan></text><text class="cls-6" transform="translate(442.87 314.46)">Second album <tspan x="0" y="21.6">goes triple </tspan><tspan x="0" y="43.2">platinum</tspan></text><text class="cls-6" transform="translate(474.72 39.1)">Started <tspan x="0" y="21.6">touring the </tspan><tspan x="0" y="43.2">northeast</tspan></text><text class="cls-9" transform="translate(0 178.34)">1997</text><text class="cls-9" transform="translate(41.36 254.91)">1999</text><text class="cls-9" transform="translate(155.53 254.91)">2004</text><text class="cls-9" transform="translate(267.41 254.91)">2010</text><text class="cls-9" transform="translate(397.12 254.91)">2017</text><text class="cls-9" transform="translate(104.95 178.34)">2000</text><text class="cls-9" transform="translate(209.12 178.34)">2006</text><text class="cls-9" transform="translate(318.11 178.34)">2014</text><text class="cls-9" transform="translate(425.23 178.34)">2019</text></svg>
