<?xml version="1.0" encoding="utf-8"?>
<!-- Generator: Adobe Illustrator 21.1.0, SVG Export Plug-In . SVG Version: 6.00 Build 0)  -->
<svg version="1.1" id="Layer_1" xmlns="http://www.w3.org/2000/svg" xmlns:xlink="http://www.w3.org/1999/xlink" x="0px" y="0px"
	 viewBox="0 0 38 36.8" style="enable-background:new 0 0 38 36.8;" xml:space="preserve">
<style type="text/css">
	.st0{fill:#093E2C;}
</style>
<g>
	<path class="st0" d="M19,5.4c1.3,0,2.4,1.1,2.4,2.4s-1.1,2.4-2.4,2.4S16.6,9,16.6,7.7S17.7,5.4,19,5.4L19,5.4z M19,4.2
		c-2,0-3.6,1.6-3.6,3.6s1.6,3.6,3.6,3.6s3.6-1.6,3.6-3.6S21,4.2,19,4.2L19,4.2z"/>
	<rect x="17.8" y="10.1" class="st0" width="2.4" height="22.6"/>
	<path class="st0" d="M22.1,7.5l11.5-5.4l-1-2.2L21.3,5.3C22,5.8,22.2,6.7,22.1,7.5z"/>
	<path class="st0" d="M15.9,7.8L4.4,13.1l1,2.2l11.2-5.2C16,9.5,15.7,8.6,15.9,7.8z"/>
	<path class="st0" d="M20.2,5.4h-2.4v-3c0-0.7,0.5-1.2,1.2-1.2s1.2,0.5,1.2,1.2V5.4z"/>
	<path class="st0" d="M23.8,34.4h-9.5v-1.2c0-1.3,1.1-2.4,2.4-2.4h4.8c1.3,0,2.4,1.1,2.4,2.4V34.4z"/>
	<path class="st0" d="M26.1,36.8H11.9v-1.2c0-1.3,1.1-2.4,2.4-2.4h9.5c1.3,0,2.4,1.1,2.4,2.4V36.8z"/>
	<path class="st0" d="M5.9,29.7c3.3,0,5.9-2.7,5.9-5.9H0C0,27,2.7,29.7,5.9,29.7z"/>
	<polygon class="st0" points="10.1,25.2 5.9,15.7 1.7,25.2 0.6,24.7 5.9,12.8 11.2,24.7 	"/>
	<path class="st0" d="M32.1,17.8c3.3,0,5.9-2.7,5.9-5.9H26.1C26.1,15.2,28.8,17.8,32.1,17.8z"/>
	<polygon class="st0" points="36.3,13.3 32.1,3.8 27.9,13.3 26.8,12.8 32.1,0.9 37.4,12.8 	"/>
</g>
<text transform="matrix(1 0 0 1 3 51)" style="font-family:'Arial-BoldMT'; font-size:5px;">from the Noun Project</text>
</svg>
